<?xml version="1.0" encoding="utf-8"?>
<!-- Generator: Adobe Illustrator 24.0.0, SVG Export Plug-In . SVG Version: 6.00 Build 0)  -->
<svg version="1.1" id="Layer_1" xmlns="http://www.w3.org/2000/svg" xmlns:xlink="http://www.w3.org/1999/xlink" x="0px" y="0px"
	 viewBox="0 0 212.6 131.7" style="enable-background:new 0 0 212.6 131.7;" xml:space="preserve">
<style type="text/css">
	.st0{fill:#97AB90;}
</style>
<g>
	<g>
		<path class="st0" d="M195.3,50.9c-6.6-4-13.7-7.5-13.7-13.9c0-4.7,3.2-7.1,6-7.8v-1c-13.4,1.3-22.6,9.2-22.6,20.2
			c0,11.7,8.4,17.2,16.5,21.9c7.4,4.2,13.8,7.8,13.8,13.7c0,5.3-2.9,7.9-7.1,8.8v0.8c15.1-1,24.4-8.5,24.4-22
			C212.6,62.3,204.5,56.5,195.3,50.9"/>
		<path class="st0" d="M165.4,69.8h-1l0.7,19.9c3.8,1.7,12.7,3.8,19,3.8v-0.8C177.9,90.8,167.9,78.9,165.4,69.8"/>
		<path class="st0" d="M208.5,49.1h1l-0.7-18.7c-2.2-0.8-10.5-2.4-17.2-2.4v1C198.4,30.2,205.9,40.3,208.5,49.1"/>
		<path class="st0" d="M149.1,0c7.5,0,11.9,4.3,11.9,12.9c0,9.6-10.4,19.1-21.7,22.3l-0.4-0.9c6.4-3.1,11.4-6.9,12.9-14.8
			c-0.9,0.3-2.2,0.5-3.7,0.5c-5.8,0-9.9-3.9-9.9-9.8C138.2,4.1,143,0,149.1,0"/>
		<path class="st0" d="M57.1,39.2c6.2,0,11.7-5.4,11.7-11.7c0-6.4-5.4-11.7-11.7-11.7c-6.4,0-11.7,5.2-11.7,11.7
			C45.4,33.8,50.7,39.2,57.1,39.2"/>
		<path class="st0" d="M48.6,74.1c-10.6,0-22.1-6.8-22.1-29.2c0-20.3,11.3-27.9,18.1-29.2v-1.4C22.3,15.9,0,32.2,0,56.6
			c0,19.4,11.8,37,35.1,37c23.5,0,32.4-17.1,34.8-27.4l-1-0.7C65.5,70.4,57.8,74.1,48.6,74.1"/>
		<path class="st0" d="M65.1,105.5c-6.4,0-11.7,5.2-11.7,11.7c0,6.4,5.2,11.7,11.7,11.7c6.2,0,11.5-5.2,11.5-11.7
			C76.6,110.8,71.4,105.5,65.1,105.5"/>
		<path class="st0" d="M85,16v0.8l3.2,2c3,2.2,4.6,4.6,4.6,10.5v56.3c-0.3,20.6-0.8,28.9-10,39.2c-1.9,1.9-5.2,4.4-7.6,5.7l0.3,1.2
			c5.6-1.7,12.2-4.4,16.6-6.8c13.5-7.6,27.2-17.4,27.2-42.9V29.8c0-6.8,0.3-16.4,0.5-23.3L119.3,6L85,16z"/>
	</g>
</g>
</svg>
